%TF.GenerationSoftware,KiCad,Pcbnew,6.0.11-2627ca5db0~126~ubuntu22.04.1*%
%TF.CreationDate,2023-06-25T19:34:19+02:00*%
%TF.ProjectId,ikegami-htm1917r-extension,696b6567-616d-4692-9d68-746d31393137,rev?*%
%TF.SameCoordinates,Original*%
%TF.FileFunction,Copper,L2,Bot*%
%TF.FilePolarity,Positive*%
%FSLAX46Y46*%
G04 Gerber Fmt 4.6, Leading zero omitted, Abs format (unit mm)*
G04 Created by KiCad (PCBNEW 6.0.11-2627ca5db0~126~ubuntu22.04.1) date 2023-06-25 19:34:19*
%MOMM*%
%LPD*%
G01*
G04 APERTURE LIST*
G04 Aperture macros list*
%AMRoundRect*
0 Rectangle with rounded corners*
0 $1 Rounding radius*
0 $2 $3 $4 $5 $6 $7 $8 $9 X,Y pos of 4 corners*
0 Add a 4 corners polygon primitive as box body*
4,1,4,$2,$3,$4,$5,$6,$7,$8,$9,$2,$3,0*
0 Add four circle primitives for the rounded corners*
1,1,$1+$1,$2,$3*
1,1,$1+$1,$4,$5*
1,1,$1+$1,$6,$7*
1,1,$1+$1,$8,$9*
0 Add four rect primitives between the rounded corners*
20,1,$1+$1,$2,$3,$4,$5,0*
20,1,$1+$1,$4,$5,$6,$7,0*
20,1,$1+$1,$6,$7,$8,$9,0*
20,1,$1+$1,$8,$9,$2,$3,0*%
G04 Aperture macros list end*
%TA.AperFunction,ComponentPad*%
%ADD10RoundRect,0.249999X-0.525001X0.525001X-0.525001X-0.525001X0.525001X-0.525001X0.525001X0.525001X0*%
%TD*%
%TA.AperFunction,ComponentPad*%
%ADD11C,1.550000*%
%TD*%
%TA.AperFunction,ComponentPad*%
%ADD12RoundRect,0.249999X0.525001X-0.525001X0.525001X0.525001X-0.525001X0.525001X-0.525001X-0.525001X0*%
%TD*%
%TA.AperFunction,Conductor*%
%ADD13C,0.500000*%
%TD*%
G04 APERTURE END LIST*
D10*
%TO.P,J10,a1,Pin_a1*%
%TO.N,A1*%
X257690000Y-232000000D03*
D11*
%TO.P,J10,a2,Pin_a2*%
%TO.N,A2*%
X257690000Y-229460000D03*
%TO.P,J10,a3,Pin_a3*%
%TO.N,A3*%
X257690000Y-226920000D03*
%TO.P,J10,a4,Pin_a4*%
%TO.N,A4*%
X257690000Y-224380000D03*
%TO.P,J10,a5,Pin_a5*%
%TO.N,A5*%
X257690000Y-221840000D03*
%TO.P,J10,a6,Pin_a6*%
%TO.N,A6*%
X257690000Y-219300000D03*
%TO.P,J10,a7,Pin_a7*%
%TO.N,A7*%
X257690000Y-216760000D03*
%TO.P,J10,a8,Pin_a8*%
%TO.N,A8*%
X257690000Y-214220000D03*
%TO.P,J10,a9,Pin_a9*%
%TO.N,A9*%
X257690000Y-211680000D03*
%TO.P,J10,a10,Pin_a10*%
%TO.N,A10*%
X257690000Y-209140000D03*
%TO.P,J10,a11,Pin_a11*%
%TO.N,A11*%
X257690000Y-206600000D03*
%TO.P,J10,a12,Pin_a12*%
%TO.N,A12*%
X257690000Y-204060000D03*
%TO.P,J10,a13,Pin_a13*%
%TO.N,A13*%
X257690000Y-201520000D03*
%TO.P,J10,a14,Pin_a14*%
%TO.N,A14*%
X257690000Y-198980000D03*
%TO.P,J10,a15,Pin_a15*%
%TO.N,A15*%
X257690000Y-196440000D03*
%TO.P,J10,a16,Pin_a16*%
%TO.N,A16*%
X257690000Y-193900000D03*
%TO.P,J10,a17,Pin_a17*%
%TO.N,A17*%
X257690000Y-191360000D03*
%TO.P,J10,a18,Pin_a18*%
%TO.N,A18*%
X257690000Y-188820000D03*
%TO.P,J10,a19,Pin_a19*%
%TO.N,A19*%
X257690000Y-186280000D03*
%TO.P,J10,a20,Pin_a20*%
%TO.N,A20*%
X257690000Y-183740000D03*
%TO.P,J10,a21,Pin_a21*%
%TO.N,A21*%
X257690000Y-181200000D03*
%TO.P,J10,a22,Pin_a22*%
%TO.N,A22*%
X257690000Y-178660000D03*
%TO.P,J10,a23,Pin_a23*%
%TO.N,A23*%
X257690000Y-176120000D03*
%TO.P,J10,a24,Pin_a24*%
%TO.N,A24*%
X257690000Y-173580000D03*
%TO.P,J10,a25,Pin_a25*%
%TO.N,A25*%
X257690000Y-171040000D03*
%TO.P,J10,a26,Pin_a26*%
%TO.N,A26*%
X257690000Y-168500000D03*
%TO.P,J10,a27,Pin_a27*%
%TO.N,A27*%
X257690000Y-165960000D03*
%TO.P,J10,a28,Pin_a28*%
%TO.N,A28*%
X257690000Y-163420000D03*
%TO.P,J10,a29,Pin_a29*%
%TO.N,A29*%
X257690000Y-160880000D03*
%TO.P,J10,a30,Pin_a30*%
%TO.N,A30*%
X257690000Y-158340000D03*
%TO.P,J10,a31,Pin_a31*%
%TO.N,A31*%
X257690000Y-155800000D03*
%TO.P,J10,a32,Pin_a32*%
%TO.N,A32*%
X257690000Y-153260000D03*
%TO.P,J10,b1,Pin_b1*%
%TO.N,B1*%
X255150000Y-232000000D03*
%TO.P,J10,b2,Pin_b2*%
%TO.N,B2*%
X255150000Y-229460000D03*
%TO.P,J10,b3,Pin_b3*%
%TO.N,B3*%
X255150000Y-226920000D03*
%TO.P,J10,b4,Pin_b4*%
%TO.N,B4*%
X255150000Y-224380000D03*
%TO.P,J10,b5,Pin_b5*%
%TO.N,B5*%
X255150000Y-221840000D03*
%TO.P,J10,b6,Pin_b6*%
%TO.N,B6*%
X255150000Y-219300000D03*
%TO.P,J10,b7,Pin_b7*%
%TO.N,B7*%
X255150000Y-216760000D03*
%TO.P,J10,b8,Pin_b8*%
%TO.N,B8*%
X255150000Y-214220000D03*
%TO.P,J10,b9,Pin_b9*%
%TO.N,B9*%
X255150000Y-211680000D03*
%TO.P,J10,b10,Pin_b10*%
%TO.N,B10*%
X255150000Y-209140000D03*
%TO.P,J10,b11,Pin_b11*%
%TO.N,B11*%
X255150000Y-206600000D03*
%TO.P,J10,b12,Pin_b12*%
%TO.N,B12*%
X255150000Y-204060000D03*
%TO.P,J10,b13,Pin_b13*%
%TO.N,B13*%
X255150000Y-201520000D03*
%TO.P,J10,b14,Pin_b14*%
%TO.N,B14*%
X255150000Y-198980000D03*
%TO.P,J10,b15,Pin_b15*%
%TO.N,B15*%
X255150000Y-196440000D03*
%TO.P,J10,b16,Pin_b16*%
%TO.N,B16*%
X255150000Y-193900000D03*
%TO.P,J10,b17,Pin_b17*%
%TO.N,B17*%
X255150000Y-191360000D03*
%TO.P,J10,b18,Pin_b18*%
%TO.N,B18*%
X255150000Y-188820000D03*
%TO.P,J10,b19,Pin_b19*%
%TO.N,B19*%
X255150000Y-186280000D03*
%TO.P,J10,b20,Pin_b20*%
%TO.N,B20*%
X255150000Y-183740000D03*
%TO.P,J10,b21,Pin_b21*%
%TO.N,B21*%
X255150000Y-181200000D03*
%TO.P,J10,b22,Pin_b22*%
%TO.N,B22*%
X255150000Y-178660000D03*
%TO.P,J10,b23,Pin_b23*%
%TO.N,B23*%
X255150000Y-176120000D03*
%TO.P,J10,b24,Pin_b24*%
%TO.N,B24*%
X255150000Y-173580000D03*
%TO.P,J10,b25,Pin_b25*%
%TO.N,B25*%
X255150000Y-171040000D03*
%TO.P,J10,b26,Pin_b26*%
%TO.N,B26*%
X255150000Y-168500000D03*
%TO.P,J10,b27,Pin_b27*%
%TO.N,B27*%
X255150000Y-165960000D03*
%TO.P,J10,b28,Pin_b28*%
%TO.N,B28*%
X255150000Y-163420000D03*
%TO.P,J10,b29,Pin_b29*%
%TO.N,B29*%
X255150000Y-160880000D03*
%TO.P,J10,b30,Pin_b30*%
%TO.N,B30*%
X255150000Y-158340000D03*
%TO.P,J10,b31,Pin_b31*%
%TO.N,B31*%
X255150000Y-155800000D03*
%TO.P,J10,b32,Pin_b32*%
%TO.N,B32*%
X255150000Y-153260000D03*
%TD*%
D12*
%TO.P,J20,a1,Pin_a1*%
%TO.N,A1*%
X78290000Y-232000000D03*
D11*
%TO.P,J20,a2,Pin_a2*%
%TO.N,A2*%
X78290000Y-229460000D03*
%TO.P,J20,a3,Pin_a3*%
%TO.N,A3*%
X78290000Y-226920000D03*
%TO.P,J20,a4,Pin_a4*%
%TO.N,A4*%
X78290000Y-224380000D03*
%TO.P,J20,a5,Pin_a5*%
%TO.N,A5*%
X78290000Y-221840000D03*
%TO.P,J20,a6,Pin_a6*%
%TO.N,A6*%
X78290000Y-219300000D03*
%TO.P,J20,a7,Pin_a7*%
%TO.N,A7*%
X78290000Y-216760000D03*
%TO.P,J20,a8,Pin_a8*%
%TO.N,A8*%
X78290000Y-214220000D03*
%TO.P,J20,a9,Pin_a9*%
%TO.N,A9*%
X78290000Y-211680000D03*
%TO.P,J20,a10,Pin_a10*%
%TO.N,A10*%
X78290000Y-209140000D03*
%TO.P,J20,a11,Pin_a11*%
%TO.N,A11*%
X78290000Y-206600000D03*
%TO.P,J20,a12,Pin_a12*%
%TO.N,A12*%
X78290000Y-204060000D03*
%TO.P,J20,a13,Pin_a13*%
%TO.N,A13*%
X78290000Y-201520000D03*
%TO.P,J20,a14,Pin_a14*%
%TO.N,A14*%
X78290000Y-198980000D03*
%TO.P,J20,a15,Pin_a15*%
%TO.N,A15*%
X78290000Y-196440000D03*
%TO.P,J20,a16,Pin_a16*%
%TO.N,A16*%
X78290000Y-193900000D03*
%TO.P,J20,a17,Pin_a17*%
%TO.N,A17*%
X78290000Y-191360000D03*
%TO.P,J20,a18,Pin_a18*%
%TO.N,A18*%
X78290000Y-188820000D03*
%TO.P,J20,a19,Pin_a19*%
%TO.N,A19*%
X78290000Y-186280000D03*
%TO.P,J20,a20,Pin_a20*%
%TO.N,A20*%
X78290000Y-183740000D03*
%TO.P,J20,a21,Pin_a21*%
%TO.N,A21*%
X78290000Y-181200000D03*
%TO.P,J20,a22,Pin_a22*%
%TO.N,A22*%
X78290000Y-178660000D03*
%TO.P,J20,a23,Pin_a23*%
%TO.N,A23*%
X78290000Y-176120000D03*
%TO.P,J20,a24,Pin_a24*%
%TO.N,A24*%
X78290000Y-173580000D03*
%TO.P,J20,a25,Pin_a25*%
%TO.N,A25*%
X78290000Y-171040000D03*
%TO.P,J20,a26,Pin_a26*%
%TO.N,A26*%
X78290000Y-168500000D03*
%TO.P,J20,a27,Pin_a27*%
%TO.N,A27*%
X78290000Y-165960000D03*
%TO.P,J20,a28,Pin_a28*%
%TO.N,A28*%
X78290000Y-163420000D03*
%TO.P,J20,a29,Pin_a29*%
%TO.N,A29*%
X78290000Y-160880000D03*
%TO.P,J20,a30,Pin_a30*%
%TO.N,A30*%
X78290000Y-158340000D03*
%TO.P,J20,a31,Pin_a31*%
%TO.N,A31*%
X78290000Y-155800000D03*
%TO.P,J20,a32,Pin_a32*%
%TO.N,A32*%
X78290000Y-153260000D03*
%TO.P,J20,b1,Pin_b1*%
%TO.N,B1*%
X80830000Y-232000000D03*
%TO.P,J20,b2,Pin_b2*%
%TO.N,B2*%
X80830000Y-229460000D03*
%TO.P,J20,b3,Pin_b3*%
%TO.N,B3*%
X80830000Y-226920000D03*
%TO.P,J20,b4,Pin_b4*%
%TO.N,B4*%
X80830000Y-224380000D03*
%TO.P,J20,b5,Pin_b5*%
%TO.N,B5*%
X80830000Y-221840000D03*
%TO.P,J20,b6,Pin_b6*%
%TO.N,B6*%
X80830000Y-219300000D03*
%TO.P,J20,b7,Pin_b7*%
%TO.N,B7*%
X80830000Y-216760000D03*
%TO.P,J20,b8,Pin_b8*%
%TO.N,B8*%
X80830000Y-214220000D03*
%TO.P,J20,b9,Pin_b9*%
%TO.N,B9*%
X80830000Y-211680000D03*
%TO.P,J20,b10,Pin_b10*%
%TO.N,B10*%
X80830000Y-209140000D03*
%TO.P,J20,b11,Pin_b11*%
%TO.N,B11*%
X80830000Y-206600000D03*
%TO.P,J20,b12,Pin_b12*%
%TO.N,B12*%
X80830000Y-204060000D03*
%TO.P,J20,b13,Pin_b13*%
%TO.N,B13*%
X80830000Y-201520000D03*
%TO.P,J20,b14,Pin_b14*%
%TO.N,B14*%
X80830000Y-198980000D03*
%TO.P,J20,b15,Pin_b15*%
%TO.N,B15*%
X80830000Y-196440000D03*
%TO.P,J20,b16,Pin_b16*%
%TO.N,B16*%
X80830000Y-193900000D03*
%TO.P,J20,b17,Pin_b17*%
%TO.N,B17*%
X80830000Y-191360000D03*
%TO.P,J20,b18,Pin_b18*%
%TO.N,B18*%
X80830000Y-188820000D03*
%TO.P,J20,b19,Pin_b19*%
%TO.N,B19*%
X80830000Y-186280000D03*
%TO.P,J20,b20,Pin_b20*%
%TO.N,B20*%
X80830000Y-183740000D03*
%TO.P,J20,b21,Pin_b21*%
%TO.N,B21*%
X80830000Y-181200000D03*
%TO.P,J20,b22,Pin_b22*%
%TO.N,B22*%
X80830000Y-178660000D03*
%TO.P,J20,b23,Pin_b23*%
%TO.N,B23*%
X80830000Y-176120000D03*
%TO.P,J20,b24,Pin_b24*%
%TO.N,B24*%
X80830000Y-173580000D03*
%TO.P,J20,b25,Pin_b25*%
%TO.N,B25*%
X80830000Y-171040000D03*
%TO.P,J20,b26,Pin_b26*%
%TO.N,B26*%
X80830000Y-168500000D03*
%TO.P,J20,b27,Pin_b27*%
%TO.N,B27*%
X80830000Y-165960000D03*
%TO.P,J20,b28,Pin_b28*%
%TO.N,B28*%
X80830000Y-163420000D03*
%TO.P,J20,b29,Pin_b29*%
%TO.N,B29*%
X80830000Y-160880000D03*
%TO.P,J20,b30,Pin_b30*%
%TO.N,B30*%
X80830000Y-158340000D03*
%TO.P,J20,b31,Pin_b31*%
%TO.N,B31*%
X80830000Y-155800000D03*
%TO.P,J20,b32,Pin_b32*%
%TO.N,B32*%
X80830000Y-153260000D03*
%TD*%
D13*
%TO.N,B1*%
X80830000Y-232000000D02*
X255150000Y-232000000D01*
%TO.N,B2*%
X255150000Y-229460000D02*
X80830000Y-229460000D01*
%TO.N,B3*%
X80830000Y-226920000D02*
X255150000Y-226920000D01*
%TO.N,B4*%
X255150000Y-224380000D02*
X80830000Y-224380000D01*
%TO.N,B5*%
X80830000Y-221840000D02*
X255150000Y-221840000D01*
%TO.N,B6*%
X255150000Y-219300000D02*
X80830000Y-219300000D01*
%TO.N,B7*%
X80830000Y-216760000D02*
X255150000Y-216760000D01*
%TO.N,B8*%
X80830000Y-214220000D02*
X255150000Y-214220000D01*
%TO.N,B9*%
X255150000Y-211680000D02*
X80830000Y-211680000D01*
%TO.N,B10*%
X80830000Y-209140000D02*
X255150000Y-209140000D01*
%TO.N,B11*%
X255150000Y-206600000D02*
X80830000Y-206600000D01*
%TO.N,B12*%
X80830000Y-204060000D02*
X255150000Y-204060000D01*
%TO.N,B13*%
X255150000Y-201520000D02*
X80830000Y-201520000D01*
%TO.N,B14*%
X80830000Y-198980000D02*
X255150000Y-198980000D01*
%TO.N,B15*%
X255150000Y-196440000D02*
X80830000Y-196440000D01*
%TO.N,B16*%
X80830000Y-193900000D02*
X255150000Y-193900000D01*
%TO.N,B17*%
X255150000Y-191360000D02*
X80830000Y-191360000D01*
%TO.N,B18*%
X80830000Y-188820000D02*
X255150000Y-188820000D01*
%TO.N,B19*%
X255150000Y-186280000D02*
X80830000Y-186280000D01*
%TO.N,B20*%
X80830000Y-183740000D02*
X255150000Y-183740000D01*
%TO.N,B21*%
X255150000Y-181200000D02*
X80830000Y-181200000D01*
%TO.N,B22*%
X80830000Y-178660000D02*
X255150000Y-178660000D01*
%TO.N,B23*%
X255150000Y-176120000D02*
X80830000Y-176120000D01*
%TO.N,B24*%
X80830000Y-173580000D02*
X255150000Y-173580000D01*
%TO.N,B25*%
X255150000Y-171040000D02*
X80830000Y-171040000D01*
%TO.N,B26*%
X80830000Y-168500000D02*
X255150000Y-168500000D01*
%TO.N,B27*%
X255150000Y-165960000D02*
X80830000Y-165960000D01*
%TO.N,B28*%
X80830000Y-163420000D02*
X255150000Y-163420000D01*
%TO.N,B29*%
X255150000Y-160880000D02*
X80830000Y-160880000D01*
%TO.N,B30*%
X80830000Y-158340000D02*
X255150000Y-158340000D01*
%TO.N,B31*%
X255150000Y-155800000D02*
X80830000Y-155800000D01*
%TO.N,B32*%
X80830000Y-153260000D02*
X255150000Y-153260000D01*
%TD*%
M02*
