M48
; DRILL file {KiCad 6.0.11-2627ca5db0~126~ubuntu22.04.1} date 2023-06-25T19:34:21 CEST
; FORMAT={-:-/ absolute / inch / decimal}
; #@! TF.CreationDate,2023-06-25T19:34:21+02:00
; #@! TF.GenerationSoftware,Kicad,Pcbnew,6.0.11-2627ca5db0~126~ubuntu22.04.1
; #@! TF.FileFunction,Plated,1,2,PTH
FMAT,2
INCH
; #@! TA.AperFunction,Plated,PTH,ComponentDrill
T1C0.0394
%
G90
G05
T1
X3.0823Y-6.0339
X3.0823Y-6.1339
X3.0823Y-6.2339
X3.0823Y-6.3339
X3.0823Y-6.4339
X3.0823Y-6.5339
X3.0823Y-6.6339
X3.0823Y-6.7339
X3.0823Y-6.8339
X3.0823Y-6.9339
X3.0823Y-7.0339
X3.0823Y-7.1339
X3.0823Y-7.2339
X3.0823Y-7.3339
X3.0823Y-7.4339
X3.0823Y-7.5339
X3.0823Y-7.6339
X3.0823Y-7.7339
X3.0823Y-7.8339
X3.0823Y-7.9339
X3.0823Y-8.0339
X3.0823Y-8.1339
X3.0823Y-8.2339
X3.0823Y-8.3339
X3.0823Y-8.4339
X3.0823Y-8.5339
X3.0823Y-8.6339
X3.0823Y-8.7339
X3.0823Y-8.8339
X3.0823Y-8.9339
X3.0823Y-9.0339
X3.0823Y-9.1339
X3.1823Y-6.0339
X3.1823Y-6.1339
X3.1823Y-6.2339
X3.1823Y-6.3339
X3.1823Y-6.4339
X3.1823Y-6.5339
X3.1823Y-6.6339
X3.1823Y-6.7339
X3.1823Y-6.8339
X3.1823Y-6.9339
X3.1823Y-7.0339
X3.1823Y-7.1339
X3.1823Y-7.2339
X3.1823Y-7.3339
X3.1823Y-7.4339
X3.1823Y-7.5339
X3.1823Y-7.6339
X3.1823Y-7.7339
X3.1823Y-7.8339
X3.1823Y-7.9339
X3.1823Y-8.0339
X3.1823Y-8.1339
X3.1823Y-8.2339
X3.1823Y-8.3339
X3.1823Y-8.4339
X3.1823Y-8.5339
X3.1823Y-8.6339
X3.1823Y-8.7339
X3.1823Y-8.8339
X3.1823Y-8.9339
X3.1823Y-9.0339
X3.1823Y-9.1339
X10.0453Y-6.0339
X10.0453Y-6.1339
X10.0453Y-6.2339
X10.0453Y-6.3339
X10.0453Y-6.4339
X10.0453Y-6.5339
X10.0453Y-6.6339
X10.0453Y-6.7339
X10.0453Y-6.8339
X10.0453Y-6.9339
X10.0453Y-7.0339
X10.0453Y-7.1339
X10.0453Y-7.2339
X10.0453Y-7.3339
X10.0453Y-7.4339
X10.0453Y-7.5339
X10.0453Y-7.6339
X10.0453Y-7.7339
X10.0453Y-7.8339
X10.0453Y-7.9339
X10.0453Y-8.0339
X10.0453Y-8.1339
X10.0453Y-8.2339
X10.0453Y-8.3339
X10.0453Y-8.4339
X10.0453Y-8.5339
X10.0453Y-8.6339
X10.0453Y-8.7339
X10.0453Y-8.8339
X10.0453Y-8.9339
X10.0453Y-9.0339
X10.0453Y-9.1339
X10.1453Y-6.0339
X10.1453Y-6.1339
X10.1453Y-6.2339
X10.1453Y-6.3339
X10.1453Y-6.4339
X10.1453Y-6.5339
X10.1453Y-6.6339
X10.1453Y-6.7339
X10.1453Y-6.8339
X10.1453Y-6.9339
X10.1453Y-7.0339
X10.1453Y-7.1339
X10.1453Y-7.2339
X10.1453Y-7.3339
X10.1453Y-7.4339
X10.1453Y-7.5339
X10.1453Y-7.6339
X10.1453Y-7.7339
X10.1453Y-7.8339
X10.1453Y-7.9339
X10.1453Y-8.0339
X10.1453Y-8.1339
X10.1453Y-8.2339
X10.1453Y-8.3339
X10.1453Y-8.4339
X10.1453Y-8.5339
X10.1453Y-8.6339
X10.1453Y-8.7339
X10.1453Y-8.8339
X10.1453Y-8.9339
X10.1453Y-9.0339
X10.1453Y-9.1339
T0
M30
