M48
; DRILL file {KiCad 6.0.11-2627ca5db0~126~ubuntu22.04.1} date 2023-06-25T19:14:40 CEST
; FORMAT={-:-/ absolute / inch / decimal}
; #@! TF.CreationDate,2023-06-25T19:14:40+02:00
; #@! TF.GenerationSoftware,Kicad,Pcbnew,6.0.11-2627ca5db0~126~ubuntu22.04.1
; #@! TF.FileFunction,Plated,1,2,PTH
FMAT,2
INCH
; #@! TA.AperFunction,Plated,PTH,ComponentDrill
T1C0.0394
%
G90
G05
T1
X3.0823Y-6.0681
X3.0823Y-6.1681
X3.0823Y-6.2681
X3.0823Y-6.3681
X3.0823Y-6.4681
X3.0823Y-6.5681
X3.0823Y-6.6681
X3.0823Y-6.7681
X3.0823Y-6.8681
X3.0823Y-6.9681
X3.0823Y-7.0681
X3.0823Y-7.1681
X3.0823Y-7.2681
X3.0823Y-7.3681
X3.0823Y-7.4681
X3.0823Y-7.5681
X3.0823Y-7.6681
X3.0823Y-7.7681
X3.0823Y-7.8681
X3.0823Y-7.9681
X3.0823Y-8.0681
X3.0823Y-8.1681
X3.0823Y-8.2681
X3.0823Y-8.3681
X3.0823Y-8.4681
X3.0823Y-8.5681
X3.0823Y-8.6681
X3.0823Y-8.7681
X3.0823Y-8.8681
X3.0823Y-8.9681
X3.0823Y-9.0681
X3.0823Y-9.1681
X3.1823Y-6.0681
X3.1823Y-6.1681
X3.1823Y-6.2681
X3.1823Y-6.3681
X3.1823Y-6.4681
X3.1823Y-6.5681
X3.1823Y-6.6681
X3.1823Y-6.7681
X3.1823Y-6.8681
X3.1823Y-6.9681
X3.1823Y-7.0681
X3.1823Y-7.1681
X3.1823Y-7.2681
X3.1823Y-7.3681
X3.1823Y-7.4681
X3.1823Y-7.5681
X3.1823Y-7.6681
X3.1823Y-7.7681
X3.1823Y-7.8681
X3.1823Y-7.9681
X3.1823Y-8.0681
X3.1823Y-8.1681
X3.1823Y-8.2681
X3.1823Y-8.3681
X3.1823Y-8.4681
X3.1823Y-8.5681
X3.1823Y-8.6681
X3.1823Y-8.7681
X3.1823Y-8.8681
X3.1823Y-8.9681
X3.1823Y-9.0681
X3.1823Y-9.1681
X10.0453Y-6.0681
X10.0453Y-6.1681
X10.0453Y-6.2681
X10.0453Y-6.3681
X10.0453Y-6.4681
X10.0453Y-6.5681
X10.0453Y-6.6681
X10.0453Y-6.7681
X10.0453Y-6.8681
X10.0453Y-6.9681
X10.0453Y-7.0681
X10.0453Y-7.1681
X10.0453Y-7.2681
X10.0453Y-7.3681
X10.0453Y-7.4681
X10.0453Y-7.5681
X10.0453Y-7.6681
X10.0453Y-7.7681
X10.0453Y-7.8681
X10.0453Y-7.9681
X10.0453Y-8.0681
X10.0453Y-8.1681
X10.0453Y-8.2681
X10.0453Y-8.3681
X10.0453Y-8.4681
X10.0453Y-8.5681
X10.0453Y-8.6681
X10.0453Y-8.7681
X10.0453Y-8.8681
X10.0453Y-8.9681
X10.0453Y-9.0681
X10.0453Y-9.1681
X10.1453Y-6.0681
X10.1453Y-6.1681
X10.1453Y-6.2681
X10.1453Y-6.3681
X10.1453Y-6.4681
X10.1453Y-6.5681
X10.1453Y-6.6681
X10.1453Y-6.7681
X10.1453Y-6.8681
X10.1453Y-6.9681
X10.1453Y-7.0681
X10.1453Y-7.1681
X10.1453Y-7.2681
X10.1453Y-7.3681
X10.1453Y-7.4681
X10.1453Y-7.5681
X10.1453Y-7.6681
X10.1453Y-7.7681
X10.1453Y-7.8681
X10.1453Y-7.9681
X10.1453Y-8.0681
X10.1453Y-8.1681
X10.1453Y-8.2681
X10.1453Y-8.3681
X10.1453Y-8.4681
X10.1453Y-8.5681
X10.1453Y-8.6681
X10.1453Y-8.7681
X10.1453Y-8.8681
X10.1453Y-8.9681
X10.1453Y-9.0681
X10.1453Y-9.1681
T0
M30
